# xmcd CD database file
#
# Track frame offsets:
#	150
#	12057
#	22669
#	33545
#	42661
#	53610
#	64408
#	73481
#	84405
#	93160
#	103534
#	117577
#	129231
#	138460
#	155087
#	166156
#	176507
#	185667
#	196992
#	207791
#	218125
#	228999
#	242632
#	252142
#	267664
#	281520
#	291674
#	301860
#	310575
#
# Disc length: 4433 seconds
#
# Revision: 3
# Processed by: cddbd v1.5.2PL0 Copyright (c) Steve Scherf et al.
# Submitted via: CDex 1.51
#
DISCID=a3114f1d
DTITLE=Everly Brothers - Greatest Hits [HDCD]
DYEAR=2002
DGENRE=Country
TTITLE0=Let It Be Me 1960
TTITLE1=All I Have To Do Is Dream 1958
TTITLE2=Devoted To You 1958
TTITLE3=Crying In The Rain 1962
TTITLE4=Cathy's Clown 1960
TTITLE5=Bye Bye Love 1957
TTITLE6=When Will I Be Loved 1960
TTITLE7=I Kissed You 1959
TTITLE8=Problems  1958
TTITLE9=Be-Bop-A-Lula 1960
TTITLE10=Ebony Eyes 1961
TTITLE11=So Sad 1960
TTITLE12=Like Starngers 1960
TTITLE13=Roving Gambler 
TTITLE14=Take A Message To Mary 1959
TTITLE15=Walk Right Back 1961
TTITLE16=Wake Up Little Susie 1957
TTITLE17=Lucille 1960
TTITLE18=That's Old Fashioned 1962
TTITLE19=Muskrat 1961
TTITLE20=Long Time Gone 
TTITLE21=Rockin' Alone (In An Old Rocking Chair)
TTITLE22=Love Of My Life 1958
TTITLE23=Don't Blame Me 1961
TTITLE24=Down In The Willow Garden 1958
TTITLE25=Bird Dog 
TTITLE26=Rip It Up
TTITLE27=Since You Broke My Heart
TTITLE28=Lightening Express
EXTD=YEAR: 2002
EXTT0=
EXTT1=
EXTT2=
EXTT3=
EXTT4=
EXTT5=
EXTT6=
EXTT7=
EXTT8=
EXTT9=
EXTT10=
EXTT11=
EXTT12=
EXTT13=
EXTT14=
EXTT15=
EXTT16=
EXTT17=
EXTT18=
EXTT19=
EXTT20=
EXTT21=
EXTT22=
EXTT23=
EXTT24=
EXTT25=
EXTT26=
EXTT27=
EXTT28=
PLAYORDER=
